<svg width="156" height="569" viewBox="0 0 156 569" fill="none" xmlns="http://www.w3.org/2000/svg">
<path d="M277.5 0L304.722 165.232L400.94 28.1743L353.775 188.855L499.931 107.117L387.72 231.421L554.867 221.193L399.835 284.5L554.867 347.807L387.72 337.579L499.931 461.883L353.775 380.145L400.94 540.826L304.722 403.768L277.5 569L250.278 403.768L154.06 540.826L201.225 380.145L55.0689 461.883L167.28 337.579L0.132996 347.807L155.165 284.5L0.132996 221.193L167.28 231.421L55.0689 107.117L201.225 188.855L154.06 28.1743L250.278 165.232L277.5 0Z" fill="#F4F4F4"/>
</svg>
