<svg width="210" height="458" viewBox="0 0 210 458" fill="none" xmlns="http://www.w3.org/2000/svg">
<path d="M-67.5 0L-40.2779 165.232L55.9399 28.1743L8.77463 188.855L154.931 107.117L42.72 231.421L209.867 221.193L54.835 284.5L209.867 347.807L42.72 337.579L154.931 461.883L8.77463 380.145L55.9399 540.826L-40.2779 403.768L-67.5 569L-94.7221 403.768L-190.94 540.826L-143.775 380.145L-289.931 461.883L-177.72 337.579L-344.867 347.807L-189.835 284.5L-344.867 221.193L-177.72 231.421L-289.931 107.117L-143.775 188.855L-190.94 28.1743L-94.7221 165.232L-67.5 0Z" fill="#F4F4F4"/>
</svg>
